<svg width="100" viewBox="0 0 32 36" fill="none" xmlns="http://www.w3.org/2000/svg">
<path fill-rule="evenodd" clip-rule="evenodd" d="M0 3C0 1.34315 1.34315 0 3 0H29C30.6569 0 32 1.34315 32 3V7.28571C32 8.94257 30.6569 10.2857 29 10.2857H3C1.34315 10.2857 0 8.94257 0 7.28571V3ZM0 15.8571C0 14.2003 1.34315 12.8571 3 12.8571H29C30.6569 12.8571 32 14.2003 32 15.8571V20.1428C32 21.7997 30.6569 23.1428 29 23.1428H3C1.34315 23.1428 0 21.7997 0 20.1428V15.8571ZM3 25.7142C1.34315 25.7142 0 27.0574 0 28.7142V32.9999C0 34.6568 1.34315 35.9999 3 35.9999H15C16.6569 35.9999 18 34.6568 18 32.9999V28.7142C18 27.0574 16.6569 25.7142 15 25.7142H3Z" fill="url(#paint0_linear_530_15450)"/>
<defs>
<linearGradient id="paint0_linear_530_15450" x1="0" y1="0" x2="36" y2="36" gradientUnits="userSpaceOnUse">
<stop stop-color="#EA1330"/>
<stop offset="1" stop-color="#AF041A"/>
</linearGradient>
</defs>
</svg>
